# xmcd CD database file
#
# Track frame offsets:
#	150
#	19562
#	38757
#	54362
#	70620
#	85427
#	99910
#	114267
#	129860
#	147455
#	162795
#
# Disc length: 2430 seconds
#
# Revision: 1
# Processed by: cddbd v1.5PL3 Copyright (c) Steve Scherf et al.
# Submitted via: CDex 1.51
#
DISCID=7f097c0b
DTITLE=Jason Sellers - A Matter Of Time
DYEAR=1999
DGENRE=Country
TTITLE0=A Matter Of Time
TTITLE1=What A Lover Is For
TTITLE2=This Thing Called Life
TTITLE3=Every Fire
TTITLE4=Golden Ring (Duet With Pam Tillis)
TTITLE5=Till I Felt Your Hands
TTITLE6=Everybody's Walking
TTITLE7=That's Not Her Picture
TTITLE8=Bad Case Of Missing You
TTITLE9=If You're Willing
TTITLE10=Can't Help Calling Your Name
EXTD=YEAR: 1999
EXTT0=
EXTT1=
EXTT2=
EXTT3=
EXTT4=
EXTT5=
EXTT6=
EXTT7=
EXTT8=
EXTT9=
EXTT10=
PLAYORDER=
